<?xml version="1.0" encoding="UTF-8" standalone="no"?>
<!-- Generator: Adobe Illustrator 19.0.0, SVG Export Plug-In . SVG Version: 6.00 Build 0)  -->

<svg
   xmlns:dc="http://purl.org/dc/elements/1.1/"
   xmlns:cc="http://creativecommons.org/ns#"
   xmlns:rdf="http://www.w3.org/1999/02/22-rdf-syntax-ns#"
   xmlns:svg="http://www.w3.org/2000/svg"
   xmlns="http://www.w3.org/2000/svg"
   xmlns:sodipodi="http://sodipodi.sourceforge.net/DTD/sodipodi-0.dtd"
   xmlns:inkscape="http://www.inkscape.org/namespaces/inkscape"
   version="1.1"
   id="Layer_1"
   x="0px"
   y="0px"
   viewBox="0 0 512.006 512.006"
   style="enable-background:new 0 0 512.006 512.006;"
   xml:space="preserve"
   sodipodi:docname="hammer.svg"
   inkscape:version="0.92.3 (2405546, 2018-03-11)"><metadata
   id="metadata6916"><rdf:RDF><cc:Work
       rdf:about=""><dc:format>image/svg+xml</dc:format><dc:type
         rdf:resource="http://purl.org/dc/dcmitype/StillImage" /></cc:Work></rdf:RDF></metadata><defs
   id="defs6914" /><sodipodi:namedview
   pagecolor="#ffffff"
   bordercolor="#666666"
   borderopacity="1"
   objecttolerance="10"
   gridtolerance="10"
   guidetolerance="10"
   inkscape:pageopacity="0"
   inkscape:pageshadow="2"
   inkscape:window-width="3820"
   inkscape:window-height="1032"
   id="namedview6912"
   showgrid="false"
   inkscape:zoom="0.46093212"
   inkscape:cx="-109.5606"
   inkscape:cy="256.00299"
   inkscape:window-x="0"
   inkscape:window-y="28"
   inkscape:window-maximized="0"
   inkscape:current-layer="Layer_1" />
<g
   id="g6879"
   style="fill:#000000">
	<g
   id="g6877"
   style="fill:#000000">
		<g
   id="g6875"
   style="fill:#000000">
			<path
   d="M508.885,205.784l-42.667-42.667c-2.005-2.005-4.715-3.115-7.552-3.115H448v-10.667c0-2.837-1.131-5.547-3.115-7.552     l-85.333-85.333C342.443,39.342,313.771,10.67,256,10.67c-57.728,0-84.203,26.475-103.552,45.781     c-3.051,3.051-3.968,7.637-2.304,11.627c1.643,3.989,5.547,6.592,9.856,6.592c86.037,0,96,36.523,96,64     c0,22.827-12.928,40.213-21.184,49.067l69.696,69.696c18.859-12.757,45.653-27.819,58.155-26.709v14.613     c0,2.837,1.131,5.547,3.115,7.552l53.333,53.333c2.005,1.984,4.715,3.115,7.552,3.115h0.363c2.965-0.085,5.739-1.408,7.659-3.627     l74.667-85.333C513.067,216.131,512.853,209.774,508.885,205.784z"
   id="path6871"
   style="fill:#000000" />
			<path
   d="M16.128,406.126C5.739,416.515,0,430.339,0,446.296c0,30.357,24.683,55.04,55.04,55.04     c15.467,0,30.315-6.571,40.725-18.005L288.363,271.47l-68.779-68.8L16.128,406.126z"
   id="path6873"
   style="fill:#000000" />
		</g>
	</g>
</g>
<g
   id="g6881">
</g>
<g
   id="g6883">
</g>
<g
   id="g6885">
</g>
<g
   id="g6887">
</g>
<g
   id="g6889">
</g>
<g
   id="g6891">
</g>
<g
   id="g6893">
</g>
<g
   id="g6895">
</g>
<g
   id="g6897">
</g>
<g
   id="g6899">
</g>
<g
   id="g6901">
</g>
<g
   id="g6903">
</g>
<g
   id="g6905">
</g>
<g
   id="g6907">
</g>
<g
   id="g6909">
</g>
</svg>