<?xml version="1.0" encoding="UTF-8" standalone="no"?>
<!-- Generator: Adobe Illustrator 19.0.0, SVG Export Plug-In . SVG Version: 6.00 Build 0)  -->

<svg
   xmlns:dc="http://purl.org/dc/elements/1.1/"
   xmlns:cc="http://creativecommons.org/ns#"
   xmlns:rdf="http://www.w3.org/1999/02/22-rdf-syntax-ns#"
   xmlns:svg="http://www.w3.org/2000/svg"
   xmlns="http://www.w3.org/2000/svg"
   xmlns:sodipodi="http://sodipodi.sourceforge.net/DTD/sodipodi-0.dtd"
   xmlns:inkscape="http://www.inkscape.org/namespaces/inkscape"
   version="1.1"
   id="Capa_1"
   x="0px"
   y="0px"
   viewBox="0 0 512.011 512.011"
   style="enable-background:new 0 0 512.011 512.011;"
   xml:space="preserve"
   sodipodi:docname="redo.svg"
   inkscape:version="0.92.3 (2405546, 2018-03-11)"><metadata
   id="metadata6093"><rdf:RDF><cc:Work
       rdf:about=""><dc:format>image/svg+xml</dc:format><dc:type
         rdf:resource="http://purl.org/dc/dcmitype/StillImage" /><dc:title></dc:title></cc:Work></rdf:RDF></metadata><defs
   id="defs6091" /><sodipodi:namedview
   pagecolor="#ffffff"
   bordercolor="#666666"
   borderopacity="1"
   objecttolerance="10"
   gridtolerance="10"
   guidetolerance="10"
   inkscape:pageopacity="0"
   inkscape:pageshadow="2"
   inkscape:window-width="1260"
   inkscape:window-height="1032"
   id="namedview6089"
   showgrid="false"
   inkscape:zoom="0.46092761"
   inkscape:cx="-123.66367"
   inkscape:cy="256.00549"
   inkscape:window-x="2560"
   inkscape:window-y="28"
   inkscape:window-maximized="0"
   inkscape:current-layer="Capa_1" />
<g
   id="g6056"
   transform="matrix(-1,0,0,1,512.01056,0)">
	<g
   id="g6054">
		<path
   d="M 511.136,286.255 C 502.08,194.863 419.84,128.015 328,128.015 H 192 v -80 c 0,-6.144 -3.52,-11.744 -9.056,-14.432 -5.568,-2.656 -12.128,-1.952 -16.928,1.92 l -160,128 C 2.208,166.575 0,171.151 0,176.015 c 0,4.864 2.208,9.44 5.984,12.512 l 160,128 c 2.912,2.304 6.464,3.488 10.016,3.488 2.368,0 4.736,-0.512 6.944,-1.568 5.536,-2.688 9.056,-8.288 9.056,-14.432 v -80 h 139.392 c 41.856,0 80,30.08 84.192,71.712 4.832,47.872 -32.704,88.288 -79.584,88.288 H 208 c -8.832,0 -16,7.168 -16,16 v 64 c 0,8.832 7.168,16 16,16 h 128 c 102.816,0 185.472,-88.864 175.136,-193.76 z"
   id="path6052"
   inkscape:connector-curvature="0" />
	</g>
</g>
<g
   id="g6058">
</g>
<g
   id="g6060">
</g>
<g
   id="g6062">
</g>
<g
   id="g6064">
</g>
<g
   id="g6066">
</g>
<g
   id="g6068">
</g>
<g
   id="g6070">
</g>
<g
   id="g6072">
</g>
<g
   id="g6074">
</g>
<g
   id="g6076">
</g>
<g
   id="g6078">
</g>
<g
   id="g6080">
</g>
<g
   id="g6082">
</g>
<g
   id="g6084">
</g>
<g
   id="g6086">
</g>
</svg>